<svg width="14" height="14" viewBox="0 0 14 14" fill="none" xmlns="http://www.w3.org/2000/svg">
<path fill-rule="evenodd" clip-rule="evenodd" d="M6.80968 10.7388C7.06709 10.4756 7.06234 10.0535 6.79909 9.79609C6.53583 9.53869 6.11374 9.54343 5.85634 9.80669L4.33301 11.3646V1.00004C4.33301 0.631851 4.03453 0.333374 3.66634 0.333374C3.29815 0.333374 2.99967 0.631851 2.99967 1.00004L2.99967 11.3646L1.47635 9.80669C1.21894 9.54343 0.796855 9.53869 0.533596 9.79609C0.270338 10.0535 0.265595 10.4756 0.523004 10.7388L3.18967 13.4661C3.3151 13.5944 3.48693 13.6667 3.66634 13.6667C3.84575 13.6667 4.01758 13.5944 4.14301 13.4661L6.80968 10.7388ZM13.4763 3.26124C13.7338 3.5245 13.729 3.94658 13.4658 4.20399C13.2025 4.46139 12.7804 4.45665 12.523 4.19339L10.9997 2.63544V13C10.9997 13.3682 10.7012 13.6667 10.333 13.6667C9.96482 13.6667 9.66634 13.3682 9.66634 13V2.63544L8.14301 4.19339C7.8856 4.45665 7.46352 4.46139 7.20026 4.20399C6.937 3.94658 6.93226 3.5245 7.18967 3.26124L9.85634 0.533962C9.98176 0.405684 10.1536 0.333374 10.333 0.333374C10.5124 0.333374 10.6843 0.405684 10.8097 0.533962L13.4763 3.26124Z" fill="#7F7F7F"/>
</svg>
