<svg width="40" height="41" viewBox="0 0 40 41" fill="none" xmlns="http://www.w3.org/2000/svg">
<g id="Facebook/vuvietduc.com">
<path id="Container" d="M0 13.9167C0 9.17091 0 6.79803 0.938221 4.99188C1.72885 3.46985 2.96985 2.22885 4.49188 1.43822C6.29803 0.5 8.67091 0.5 13.4167 0.5H26.5833C31.3291 0.5 33.702 0.5 35.5081 1.43822C37.0301 2.22885 38.2711 3.46985 39.0618 4.99188C40 6.79803 40 9.17091 40 13.9167V27.0833C40 31.8291 40 34.202 39.0618 36.0081C38.2711 37.5301 37.0301 38.7711 35.5081 39.5618C33.702 40.5 31.3291 40.5 26.5833 40.5H13.4167C8.67091 40.5 6.29803 40.5 4.49188 39.5618C2.96985 38.7711 1.72885 37.5301 0.938221 36.0081C0 34.202 0 31.8291 0 27.0833V13.9167Z" fill="url(#paint0_linear_4_2344)"/>
<path id="Vector" d="M27.778 26.0551L28.6669 20.4996H23.3335V16.6107C23.3335 15.0551 23.8891 13.8329 26.3335 13.8329H28.8891V8.72179C27.4446 8.49957 25.8891 8.27734 24.4446 8.27734C19.8891 8.27734 16.6669 11.0551 16.6669 16.0551V20.4996H11.6669V26.0551H16.6669V40.4996C18.8891 40.4996 21.1113 40.4996 23.3335 40.4996V26.0551H27.778Z" fill="white"/>
</g>
<defs>
<linearGradient id="paint0_linear_4_2344" x1="20" y1="39.3313" x2="20" y2="0.5" gradientUnits="userSpaceOnUse">
<stop stop-color="#0062E0"/>
<stop offset="1" stop-color="#19AFFF"/>
</linearGradient>
</defs>
</svg>
