<svg width="34" height="35" viewBox="0 0 34 35" fill="none" xmlns="http://www.w3.org/2000/svg">
<g id="geo-alt-fill">
<path id="Vector" d="M16.9973 3.35352C10.7384 3.35352 5.66394 8.42801 5.66394 14.6868C5.66394 19.5984 8.84861 25.1872 13.1454 29.8282C13.2842 29.9769 13.3975 30.0931 13.5434 30.2262C14.7604 31.3157 16.0212 31.701 16.9973 31.6868C17.01 31.6868 17.0313 31.6868 17.0412 31.6868C18.0583 31.6868 19.492 31.2292 20.8492 29.8721C24.9716 25.7496 28.3306 19.6707 28.3306 14.6868C28.3306 8.42801 23.2561 3.35352 16.9973 3.35352ZM16.9973 10.4368C19.3447 10.4368 21.2472 12.3394 21.2472 14.6868C21.2472 17.0343 19.3447 18.9368 16.9973 18.9368C14.6498 18.9368 12.7473 17.0343 12.7473 14.6868C12.7473 12.3394 14.6498 10.4368 16.9973 10.4368Z" fill="#2F3030"/>
</g>
</svg>
