<svg width="40" height="41" viewBox="0 0 40 41" fill="none" xmlns="http://www.w3.org/2000/svg">
<g id="Instagram/vuvietduc.com" clip-path="url(#clip0_4_2345)">
<g id="Container">
<path d="M0.0223389 13.9167C0.0223389 9.17091 0.0223389 6.79803 0.96056 4.99188C1.75119 3.46985 2.99219 2.22885 4.51422 1.43822C6.32037 0.5 8.69325 0.5 13.439 0.5H26.6057C31.3514 0.5 33.7243 0.5 35.5305 1.43822C37.0525 2.22885 38.2935 3.46985 39.0841 4.99188C40.0223 6.79803 40.0223 9.17091 40.0223 13.9167V27.0833C40.0223 31.8291 40.0223 34.202 39.0841 36.0081C38.2935 37.5301 37.0525 38.7711 35.5305 39.5618C33.7243 40.5 31.3514 40.5 26.6057 40.5H13.439C8.69325 40.5 6.32037 40.5 4.51422 39.5618C2.99219 38.7711 1.75119 37.5301 0.96056 36.0081C0.0223389 34.202 0.0223389 31.8291 0.0223389 27.0833V13.9167Z" fill="url(#paint0_radial_4_2345)"/>
<path d="M0.0223389 13.9167C0.0223389 9.17091 0.0223389 6.79803 0.96056 4.99188C1.75119 3.46985 2.99219 2.22885 4.51422 1.43822C6.32037 0.5 8.69325 0.5 13.439 0.5H26.6057C31.3514 0.5 33.7243 0.5 35.5305 1.43822C37.0525 2.22885 38.2935 3.46985 39.0841 4.99188C40.0223 6.79803 40.0223 9.17091 40.0223 13.9167V27.0833C40.0223 31.8291 40.0223 34.202 39.0841 36.0081C38.2935 37.5301 37.0525 38.7711 35.5305 39.5618C33.7243 40.5 31.3514 40.5 26.6057 40.5H13.439C8.69325 40.5 6.32037 40.5 4.51422 39.5618C2.99219 38.7711 1.75119 37.5301 0.96056 36.0081C0.0223389 34.202 0.0223389 31.8291 0.0223389 27.0833V13.9167Z" fill="url(#paint1_radial_4_2345)"/>
</g>
<path id="Vector" d="M19.9995 5.95459C16.0493 5.95459 15.5535 5.97186 14.0021 6.04247C12.4536 6.11338 11.3967 6.35853 10.4719 6.71823C9.51524 7.08974 8.70375 7.58671 7.89529 8.3955C7.08623 9.20398 6.58927 10.0155 6.21656 10.9719C5.85596 11.897 5.61051 12.9543 5.54082 14.5022C5.47143 16.0537 5.45325 16.5497 5.45325 20.5C5.45325 24.4503 5.47082 24.9446 5.54112 26.4961C5.61233 28.0446 5.85748 29.1016 6.21686 30.0264C6.58867 30.9831 7.08562 31.7946 7.89439 32.6031C8.70254 33.4122 9.51403 33.9103 10.4701 34.2819C11.3955 34.6416 12.4527 34.8867 14.0009 34.9576C15.5523 35.0282 16.0478 35.0455 19.9977 35.0455C23.9481 35.0455 24.4424 35.0282 25.9938 34.9576C27.5423 34.8867 28.6004 34.6416 29.5259 34.2819C30.4822 33.9103 31.2925 33.4122 32.1006 32.6031C32.9097 31.7946 33.4066 30.9831 33.7794 30.0267C34.1369 29.1016 34.3824 28.0443 34.4551 26.4964C34.5248 24.9449 34.543 24.4503 34.543 20.5C34.543 16.5497 34.5248 16.054 34.4551 14.5025C34.3824 12.954 34.1369 11.897 33.7794 10.9722C33.4066 10.0155 32.9097 9.20398 32.1006 8.3955C31.2916 7.58641 30.4825 7.08944 29.5249 6.71823C28.5977 6.35853 27.5402 6.11338 25.9917 6.04247C24.4402 5.97186 23.9463 5.95459 19.9949 5.95459H19.9995ZM18.6947 8.5758C19.0819 8.5752 19.514 8.5758 19.9995 8.5758C23.883 8.5758 24.3433 8.58974 25.8769 8.65944C27.295 8.72429 28.0647 8.96126 28.5774 9.16035C29.2562 9.42398 29.7401 9.73913 30.2489 10.2482C30.7579 10.7573 31.0731 11.2422 31.3373 11.921C31.5364 12.4331 31.7737 13.2028 31.8382 14.621C31.9079 16.1543 31.923 16.6149 31.923 20.4967C31.923 24.3785 31.9079 24.8391 31.8382 26.3725C31.7734 27.7906 31.5364 28.5603 31.3373 29.0725C31.0737 29.7513 30.7579 30.2346 30.2489 30.7434C29.7398 31.2525 29.2565 31.5676 28.5774 31.8313C28.0653 32.0313 27.295 32.2676 25.8769 32.3325C24.3436 32.4022 23.883 32.4173 19.9995 32.4173C16.1157 32.4173 15.6554 32.4022 14.1221 32.3325C12.7039 32.267 11.9343 32.03 11.4212 31.8309C10.7425 31.5673 10.2576 31.2522 9.74857 30.7431C9.2395 30.234 8.92435 29.7503 8.66012 29.0713C8.46103 28.5591 8.22377 27.7894 8.15923 26.3713C8.08953 24.8379 8.07559 24.3773 8.07559 20.4931C8.07559 16.6088 8.08953 16.1506 8.15923 14.6173C8.22407 13.1991 8.46103 12.4294 8.66012 11.9167C8.92375 11.2379 9.2395 10.7531 9.74857 10.244C10.2576 9.73489 10.7425 9.41974 11.4212 9.1555C11.934 8.9555 12.7039 8.71914 14.1221 8.65398C15.4639 8.59338 15.9838 8.5752 18.6947 8.57217V8.5758ZM27.7635 10.991C26.7999 10.991 26.0181 11.7719 26.0181 12.7358C26.0181 13.6994 26.7999 14.4813 27.7635 14.4813C28.7271 14.4813 29.5089 13.6994 29.5089 12.7358C29.5089 11.7722 28.7271 10.9903 27.7635 10.9903V10.991ZM19.9995 13.0303C15.8744 13.0303 12.53 16.3749 12.53 20.5C12.53 24.6252 15.8744 27.9682 19.9995 27.9682C24.1245 27.9682 27.4677 24.6252 27.4677 20.5C27.4677 16.3749 24.1242 13.0303 19.9992 13.0303H19.9995ZM19.9995 15.6516C22.677 15.6516 24.8478 17.8222 24.8478 20.5C24.8478 23.1776 22.677 25.3485 19.9995 25.3485C17.3217 25.3485 15.1511 23.1776 15.1511 20.5C15.1511 17.8222 17.3217 15.6516 19.9995 15.6516Z" fill="white"/>
</g>
<defs>
<radialGradient id="paint0_radial_4_2345" cx="0" cy="0" r="1" gradientUnits="userSpaceOnUse" gradientTransform="translate(10.6474 43.5808) rotate(-90) scale(39.643 36.8711)">
<stop stop-color="#FFDD55"/>
<stop offset="0.1" stop-color="#FFDD55"/>
<stop offset="0.5" stop-color="#FF543E"/>
<stop offset="1" stop-color="#C837AB"/>
</radialGradient>
<radialGradient id="paint1_radial_4_2345" cx="0" cy="0" r="1" gradientUnits="userSpaceOnUse" gradientTransform="translate(-6.67787 3.38153) rotate(78.6806) scale(17.7206 73.0449)">
<stop stop-color="#3771C8"/>
<stop offset="0.128" stop-color="#3771C8"/>
<stop offset="1" stop-color="#6600FF" stop-opacity="0"/>
</radialGradient>
<clipPath id="clip0_4_2345">
<rect width="40" height="40" fill="white" transform="translate(0 0.5)"/>
</clipPath>
</defs>
</svg>
