<svg width="459" height="128" viewBox="0 0 459 128" fill="none" xmlns="http://www.w3.org/2000/svg">
<path d="M0.333333 125.025C0.333333 126.498 1.52724 127.692 3 127.692C4.47276 127.692 5.66667 126.498 5.66667 125.025C5.66667 123.552 4.47276 122.358 3 122.358C1.52724 122.358 0.333333 123.552 0.333333 125.025ZM458.392 1.33507C458.563 1.11849 458.527 0.80404 458.31 0.632737C458.094 0.461434 457.779 0.498144 457.608 0.714731L458.392 1.33507ZM362.591 121.655L362.983 121.966L362.591 121.655ZM3 125.525C3.21594 125.525 3.43226 125.525 3.64896 125.525C3.86566 125.525 4.08274 125.525 4.30019 125.525C4.51764 125.525 4.73547 125.525 4.95367 125.525C5.17187 125.525 5.39045 125.525 5.6094 125.525C5.82834 125.525 6.04766 125.525 6.26735 125.525C6.48704 125.525 6.7071 125.525 6.92753 125.525C7.14795 125.525 7.36874 125.525 7.5899 125.525C7.81106 125.525 8.03259 125.525 8.25448 125.525C8.47636 125.525 8.69861 125.525 8.92123 125.525C9.14384 125.525 9.36681 125.525 9.59015 125.525C9.81348 125.525 10.0372 125.525 10.2612 125.525C10.4853 125.525 10.7097 125.525 10.9344 125.525C11.1592 125.525 11.3843 125.525 11.6098 125.525C11.8353 125.525 12.0611 125.525 12.2873 125.525C12.5134 125.525 12.74 125.525 12.9668 125.525C13.1937 125.525 13.4209 125.525 13.6485 125.525C13.8761 125.525 14.104 125.525 14.3323 125.525C14.5605 125.525 14.7891 125.525 15.0181 125.525C15.247 125.525 15.4763 125.525 15.7059 125.525C15.9356 125.525 16.1655 125.525 16.3959 125.525C16.6262 125.525 16.8568 125.525 17.0878 125.525C17.3188 125.525 17.5501 125.525 17.7818 125.525C18.0134 125.525 18.2454 125.525 18.4778 125.525C18.7101 125.525 18.9427 125.525 19.1757 125.525C19.4087 125.525 19.642 125.525 19.8757 125.525C20.1093 125.525 20.3433 125.525 20.5776 125.525C20.8119 125.525 21.0465 125.525 21.2815 125.525C21.5164 125.525 21.7517 125.525 21.9873 125.525C22.2229 125.525 22.4588 125.525 22.695 125.525C22.9313 125.525 23.1678 125.525 23.4047 125.525C23.6416 125.525 23.8788 125.525 24.1163 125.525C24.3538 125.525 24.5916 125.525 24.8298 125.525C25.0679 125.525 25.3064 125.525 25.5451 125.525C25.7839 125.525 26.023 125.525 26.2624 125.525C26.5018 125.525 26.7415 125.525 26.9815 125.525C27.2215 125.525 27.4618 125.525 27.7024 125.525C27.943 125.525 28.1839 125.525 28.4252 125.525C28.6664 125.525 28.9079 125.525 29.1497 125.525C29.3916 125.525 29.6337 125.525 29.8761 125.525C30.1186 125.525 30.3613 125.525 30.6043 125.525C30.8473 125.525 31.0907 125.525 31.3343 125.525C31.5779 125.525 31.8218 125.525 32.066 125.525C32.3102 125.525 32.5547 125.525 32.7995 125.525C33.0443 125.525 33.2894 125.525 33.5348 125.525C33.7802 125.525 34.0258 125.525 34.2718 125.525C34.5177 125.525 34.764 125.525 35.0105 125.525C35.257 125.525 35.5038 125.525 35.7509 125.525C35.998 125.525 36.2453 125.525 36.493 125.525C36.7406 125.525 36.9886 125.525 37.2368 125.525C37.485 125.525 37.7335 125.525 37.9822 125.525C38.231 125.525 38.48 125.525 38.7294 125.525C38.9787 125.525 39.2283 125.525 39.4781 125.525C39.728 125.525 39.9781 125.525 40.2285 125.525C40.4789 125.525 40.7296 125.525 40.9806 125.525C41.2315 125.525 41.4827 125.525 41.7342 125.525C41.9857 125.525 42.2374 125.525 42.4894 125.525C42.7414 125.525 42.9937 125.525 43.2462 125.525C43.4988 125.525 43.7516 125.525 44.0046 125.525C44.2577 125.525 44.511 125.525 44.7646 125.525C45.0181 125.525 45.272 125.525 45.5261 125.525C45.7802 125.525 46.0345 125.525 46.2891 125.525C46.5437 125.525 46.7985 125.525 47.0536 125.525C47.3088 125.525 47.5641 125.525 47.8197 125.525C48.0753 125.525 48.3312 125.525 48.5873 125.525C48.8434 125.525 49.0997 125.525 49.3563 125.525C49.6129 125.525 49.8697 125.525 50.1268 125.525C50.3839 125.525 50.6412 125.525 50.8988 125.525C51.1564 125.525 51.4142 125.525 51.6722 125.525C51.9303 125.525 52.1886 125.525 52.4471 125.525C52.7056 125.525 52.9644 125.525 53.2234 125.525C53.4824 125.525 53.7416 125.525 54.0011 125.525C54.2605 125.525 54.5202 125.525 54.7802 125.525C55.0401 125.525 55.3003 125.525 55.5606 125.525C55.821 125.525 56.0817 125.525 56.3425 125.525C56.6034 125.525 56.8644 125.525 57.1257 125.525C57.387 125.525 57.6485 125.525 57.9103 125.525C58.172 125.525 58.434 125.525 58.6962 125.525C58.9584 125.525 59.2208 125.525 59.4834 125.525C59.746 125.525 60.0089 125.525 60.2719 125.525C60.535 125.525 60.7983 125.525 61.0618 125.525C61.3253 125.525 61.589 125.525 61.8529 125.525C62.1168 125.525 62.3809 125.525 62.6453 125.525C62.9096 125.525 63.1742 125.525 63.4389 125.525C63.7037 125.525 63.9687 125.525 64.2338 125.525C64.499 125.525 64.7644 125.525 65.03 125.525C65.2956 125.525 65.5614 125.525 65.8274 125.525C66.0933 125.525 66.3595 125.525 66.6259 125.525C66.8923 125.525 67.1589 125.525 67.4257 125.525C67.6925 125.525 67.9595 125.525 68.2267 125.525C68.4939 125.525 68.7612 125.525 69.0288 125.525C69.2964 125.525 69.5642 125.525 69.8321 125.525C70.1001 125.525 70.3682 125.525 70.6366 125.525C70.9049 125.525 71.1735 125.525 71.4422 125.525C71.7109 125.525 71.9798 125.525 72.2489 125.525C72.518 125.525 72.7873 125.525 73.0567 125.525C73.3262 125.525 73.5958 125.525 73.8656 125.525C74.1355 125.525 74.4055 125.525 74.6757 125.525C74.9458 125.525 75.2162 125.525 75.4868 125.525C75.7573 125.525 76.028 125.525 76.2989 125.525C76.5698 125.525 76.8409 125.525 77.1121 125.525C77.3834 125.525 77.6548 125.525 77.9264 125.525C78.198 125.525 78.4697 125.525 78.7416 125.525C79.0136 125.525 79.2857 125.525 79.5579 125.525C79.8302 125.525 80.1026 125.525 80.3752 125.525C80.6478 125.525 80.9206 125.525 81.1935 125.525C81.4664 125.525 81.7395 125.525 82.0127 125.525C82.286 125.525 82.5594 125.525 82.8329 125.525C83.1065 125.525 83.3802 125.525 83.6541 125.525C83.928 125.525 84.202 125.525 84.4762 125.525C84.7504 125.525 85.0247 125.525 85.2992 125.525C85.5737 125.525 85.8484 125.525 86.1232 125.525C86.398 125.525 86.6729 125.525 86.948 125.525C87.2231 125.525 87.4984 125.525 87.7738 125.525C88.0492 125.525 88.3247 125.525 88.6004 125.525C88.8761 125.525 89.1519 125.525 89.4279 125.525C89.7038 125.525 89.9799 125.525 90.2562 125.525C90.5324 125.525 90.8088 125.525 91.0854 125.525C91.3619 125.525 91.6386 125.525 91.9154 125.525C92.1922 125.525 92.4691 125.525 92.7462 125.525C93.0232 125.525 93.3004 125.525 93.5778 125.525C93.8551 125.525 94.1326 125.525 94.4102 125.525C94.6878 125.525 94.9655 125.525 95.2434 125.525C95.5212 125.525 95.7992 125.525 96.0773 125.525C96.3554 125.525 96.6337 125.525 96.912 125.525C97.1904 125.525 97.4689 125.525 97.7475 125.525C98.0261 125.525 98.3048 125.525 98.5836 125.525C98.8625 125.525 99.1414 125.525 99.4205 125.525C99.6996 125.525 99.9788 125.525 100.258 125.525C100.537 125.525 100.817 125.525 101.096 125.525C101.376 125.525 101.656 125.525 101.935 125.525C102.215 125.525 102.495 125.525 102.775 125.525C103.055 125.525 103.335 125.525 103.615 125.525C103.895 125.525 104.176 125.525 104.456 125.525C104.737 125.525 105.017 125.525 105.298 125.525C105.578 125.525 105.859 125.525 106.14 125.525C106.421 125.525 106.702 125.525 106.983 125.525C107.264 125.525 107.545 125.525 107.826 125.525C108.107 125.525 108.388 125.525 108.67 125.525C108.951 125.525 109.233 125.525 109.514 125.525C109.796 125.525 110.078 125.525 110.359 125.525C110.641 125.525 110.923 125.525 111.205 125.525C111.487 125.525 111.769 125.525 112.051 125.525C112.333 125.525 112.616 125.525 112.898 125.525C113.18 125.525 113.462 125.525 113.745 125.525C114.027 125.525 114.31 125.525 114.593 125.525C114.875 125.525 115.158 125.525 115.441 125.525C115.724 125.525 116.006 125.525 116.289 125.525C116.572 125.525 116.855 125.525 117.138 125.525C117.421 125.525 117.705 125.525 117.988 125.525C118.271 125.525 118.554 125.525 118.838 125.525C119.121 125.525 119.405 125.525 119.688 125.525C119.972 125.525 120.255 125.525 120.539 125.525C120.822 125.525 121.106 125.525 121.39 125.525C121.674 125.525 121.958 125.525 122.241 125.525C122.525 125.525 122.809 125.525 123.093 125.525C123.377 125.525 123.661 125.525 123.946 125.525C124.23 125.525 124.514 125.525 124.798 125.525C125.082 125.525 125.367 125.525 125.651 125.525C125.935 125.525 126.22 125.525 126.504 125.525C126.789 125.525 127.073 125.525 127.358 125.525C127.642 125.525 127.927 125.525 128.212 125.525C128.496 125.525 128.781 125.525 129.066 125.525C129.35 125.525 129.635 125.525 129.92 125.525C130.205 125.525 130.49 125.525 130.775 125.525C131.06 125.525 131.345 125.525 131.63 125.525C131.915 125.525 132.2 125.525 132.485 125.525C132.77 125.525 133.055 125.525 133.34 125.525C133.625 125.525 133.91 125.525 134.196 125.525C134.481 125.525 134.766 125.525 135.051 125.525C135.337 125.525 135.622 125.525 135.907 125.525C136.193 125.525 136.478 125.525 136.763 125.525C137.049 125.525 137.334 125.525 137.619 125.525C137.905 125.525 138.19 125.525 138.476 125.525C138.761 125.525 139.047 125.525 139.332 125.525C139.618 125.525 139.903 125.525 140.189 125.525C140.475 125.525 140.76 125.525 141.046 125.525C141.331 125.525 141.617 125.525 141.903 125.525C142.188 125.525 142.474 125.525 142.759 125.525C143.045 125.525 143.331 125.525 143.616 125.525C143.902 125.525 144.188 125.525 144.473 125.525C144.759 125.525 145.045 125.525 145.331 125.525C145.616 125.525 145.902 125.525 146.188 125.525C146.473 125.525 146.759 125.525 147.045 125.525C147.331 125.525 147.616 125.525 147.902 125.525C148.188 125.525 148.473 125.525 148.759 125.525C149.045 125.525 149.331 125.525 149.616 125.525C149.902 125.525 150.188 125.525 150.473 125.525C150.759 125.525 151.045 125.525 151.33 125.525C151.616 125.525 151.902 125.525 152.187 125.525C152.473 125.525 152.759 125.525 153.044 125.525C153.33 125.525 153.616 125.525 153.901 125.525C154.187 125.525 154.472 125.525 154.758 125.525C155.044 125.525 155.329 125.525 155.615 125.525C155.9 125.525 156.186 125.525 156.471 125.525C156.757 125.525 157.042 125.525 157.328 125.525C157.613 125.525 157.898 125.525 158.184 125.525C158.469 125.525 158.755 125.525 159.04 125.525C159.325 125.525 159.611 125.525 159.896 125.525C160.181 125.525 160.466 125.525 160.752 125.525C161.037 125.525 161.322 125.525 161.607 125.525C161.892 125.525 162.178 125.525 162.463 125.525C162.748 125.525 163.033 125.525 163.318 125.525C163.603 125.525 163.888 125.525 164.173 125.525C164.458 125.525 164.743 125.525 165.027 125.525C165.312 125.525 165.597 125.525 165.882 125.525C166.167 125.525 166.451 125.525 166.736 125.525C167.021 125.525 167.305 125.525 167.59 125.525C167.874 125.525 168.159 125.525 168.444 125.525C168.728 125.525 169.012 125.525 169.297 125.525C169.581 125.525 169.866 125.525 170.15 125.525C170.434 125.525 170.718 125.525 171.002 125.525C171.287 125.525 171.571 125.525 171.855 125.525C172.139 125.525 172.423 125.525 172.707 125.525C172.991 125.525 173.275 125.525 173.558 125.525C173.842 125.525 174.126 125.525 174.41 125.525C174.693 125.525 174.977 125.525 175.26 125.525C175.544 125.525 175.827 125.525 176.111 125.525C176.394 125.525 176.678 125.525 176.961 125.525C177.244 125.525 177.527 125.525 177.811 125.525C178.094 125.525 178.377 125.525 178.66 125.525C178.943 125.525 179.226 125.525 179.508 125.525C179.791 125.525 180.074 125.525 180.357 125.525C180.639 125.525 180.922 125.525 181.204 125.525C181.487 125.525 181.769 125.525 182.052 125.525C182.334 125.525 182.616 125.525 182.898 125.525C183.181 125.525 183.463 125.525 183.745 125.525C184.027 125.525 184.309 125.525 184.59 125.525C184.872 125.525 185.154 125.525 185.436 125.525C185.717 125.525 185.999 125.525 186.28 125.525C186.562 125.525 186.843 125.525 187.124 125.525C187.406 125.525 187.687 125.525 187.968 125.525C188.249 125.525 188.53 125.525 188.811 125.525C189.092 125.525 189.372 125.525 189.653 125.525C189.934 125.525 190.214 125.525 190.495 125.525C190.775 125.525 191.056 125.525 191.336 125.525C191.616 125.525 191.896 125.525 192.176 125.525C192.456 125.525 192.736 125.525 193.016 125.525C193.296 125.525 193.576 125.525 193.855 125.525C194.135 125.525 194.414 125.525 194.694 125.525C194.973 125.525 195.252 125.525 195.532 125.525C195.811 125.525 196.09 125.525 196.369 125.525C196.648 125.525 196.926 125.525 197.205 125.525C197.484 125.525 197.762 125.525 198.041 125.525C198.319 125.525 198.597 125.525 198.875 125.525C199.154 125.525 199.432 125.525 199.71 125.525C199.988 125.525 200.265 125.525 200.543 125.525C200.821 125.525 201.098 125.525 201.376 125.525C201.653 125.525 201.93 125.525 202.207 125.525C202.485 125.525 202.762 125.525 203.038 125.525C203.315 125.525 203.592 125.525 203.869 125.525C204.145 125.525 204.422 125.525 204.698 125.525C204.974 125.525 205.251 125.525 205.527 125.525C205.803 125.525 206.079 125.525 206.354 125.525C206.63 125.525 206.906 125.525 207.181 125.525C207.457 125.525 207.732 125.525 208.007 125.525C208.282 125.525 208.557 125.525 208.832 125.525C209.107 125.525 209.382 125.525 209.656 125.525C209.931 125.525 210.205 125.525 210.48 125.525C210.754 125.525 211.028 125.525 211.302 125.525C211.576 125.525 211.85 125.525 212.123 125.525C212.397 125.525 212.671 125.525 212.944 125.525C213.217 125.525 213.49 125.525 213.763 125.525C214.036 125.525 214.309 125.525 214.582 125.525C214.855 125.525 215.127 125.525 215.4 125.525C215.672 125.525 215.944 125.525 216.216 125.525C216.488 125.525 216.76 125.525 217.032 125.525C217.303 125.525 217.575 125.525 217.846 125.525C218.117 125.525 218.389 125.525 218.66 125.525C218.931 125.525 219.201 125.525 219.472 125.525C219.743 125.525 220.013 125.525 220.283 125.525C220.554 125.525 220.824 125.525 221.094 125.525C221.364 125.525 221.633 125.525 221.903 125.525C222.172 125.525 222.442 125.525 222.711 125.525C222.98 125.525 223.249 125.525 223.518 125.525C223.787 125.525 224.055 125.525 224.324 125.525C224.592 125.525 224.861 125.525 225.129 125.525C225.397 125.525 225.665 125.525 225.932 125.525C226.2 125.525 226.467 125.525 226.735 125.525C227.002 125.525 227.269 125.525 227.536 125.525C227.803 125.525 228.07 125.525 228.336 125.525C228.603 125.525 228.869 125.525 229.135 125.525C229.401 125.525 229.667 125.525 229.933 125.525C230.198 125.525 230.464 125.525 230.729 125.525C230.994 125.525 231.26 125.525 231.524 125.525C231.789 125.525 232.054 125.525 232.318 125.525C232.583 125.525 232.847 125.525 233.111 125.525C233.375 125.525 233.639 125.525 233.903 125.525C234.166 125.525 234.43 125.525 234.693 125.525C234.956 125.525 235.219 125.525 235.482 125.525C235.744 125.525 236.007 125.525 236.269 125.525C236.532 125.525 236.794 125.525 237.055 125.525C237.317 125.525 237.579 125.525 237.84 125.525C238.102 125.525 238.363 125.525 238.624 125.525C238.885 125.525 239.146 125.525 239.406 125.525C239.667 125.525 239.927 125.525 240.187 125.525C240.447 125.525 240.707 125.525 240.966 125.525C241.226 125.525 241.485 125.525 241.745 125.525C242.004 125.525 242.263 125.525 242.521 125.525C242.78 125.525 243.038 125.525 243.296 125.525C243.555 125.525 243.813 125.525 244.07 125.525C244.328 125.525 244.585 125.525 244.843 125.525C245.1 125.525 245.357 125.525 245.613 125.525C245.87 125.525 246.127 125.525 246.383 125.525C246.639 125.525 246.895 125.525 247.151 125.525C247.407 125.525 247.662 125.525 247.917 125.525C248.173 125.525 248.428 125.525 248.682 125.525C248.937 125.525 249.191 125.525 249.446 125.525C249.7 125.525 249.954 125.525 250.208 125.525C250.461 125.525 250.715 125.525 250.968 125.525C251.221 125.525 251.474 125.525 251.727 125.525C251.979 125.525 252.232 125.525 252.484 125.525C252.736 125.525 252.988 125.525 253.24 125.525C253.491 125.525 253.743 125.525 253.994 125.525C254.245 125.525 254.496 125.525 254.746 125.525C254.997 125.525 255.247 125.525 255.497 125.525C255.747 125.525 255.997 125.525 256.246 125.525C256.496 125.525 256.745 125.525 256.994 125.525C257.243 125.525 257.491 125.525 257.74 125.525C257.988 125.525 258.236 125.525 258.484 125.525C258.732 125.525 258.979 125.525 259.226 125.525C259.474 125.525 259.721 125.525 259.967 125.525C260.214 125.525 260.46 125.525 260.706 125.525C260.953 125.525 261.198 125.525 261.444 125.525C261.689 125.525 261.935 125.525 262.18 125.525C262.425 125.525 262.669 125.525 262.914 125.525C263.158 125.525 263.402 125.525 263.646 125.525C263.89 125.525 264.133 125.525 264.376 125.525C264.619 125.525 264.862 125.525 265.105 125.525C265.347 125.525 265.59 125.525 265.832 125.525C266.074 125.525 266.315 125.525 266.557 125.525C266.798 125.525 267.039 125.525 267.28 125.525C267.521 125.525 267.761 125.525 268.001 125.525C268.242 125.525 268.482 125.525 268.721 125.525C268.961 125.525 269.2 125.525 269.439 125.525C269.678 125.525 269.916 125.525 270.155 125.525C270.393 125.525 270.631 125.525 270.869 125.525C271.106 125.525 271.344 125.525 271.581 125.525C271.818 125.525 272.054 125.525 272.291 125.525C272.527 125.525 272.763 125.525 272.999 125.525C273.235 125.525 273.47 125.525 273.705 125.525C273.941 125.525 274.175 125.525 274.41 125.525C274.644 125.525 274.878 125.525 275.112 125.525C275.346 125.525 275.58 125.525 275.813 125.525C276.046 125.525 276.279 125.525 276.511 125.525C276.744 125.525 276.976 125.525 277.208 125.525C277.44 125.525 277.671 125.525 277.902 125.525C278.133 125.525 278.364 125.525 278.595 125.525C278.825 125.525 279.055 125.525 279.285 125.525C279.515 125.525 279.744 125.525 279.974 125.525C280.203 125.525 280.432 125.525 280.66 125.525C280.888 125.525 281.117 125.525 281.344 125.525C281.572 125.525 281.799 125.525 282.026 125.525C282.254 125.525 282.48 125.525 282.707 125.525C282.933 125.525 283.159 125.525 283.385 125.525C283.61 125.525 283.836 125.525 284.061 125.525C284.285 125.525 284.51 125.525 284.734 125.525C284.959 125.525 285.182 125.525 285.406 125.525C285.629 125.525 285.853 125.525 286.075 125.525C286.298 125.525 286.521 125.525 286.743 125.525C286.965 125.525 287.187 125.525 287.408 125.525C287.629 125.525 287.85 125.525 288.071 125.525C288.292 125.525 288.512 125.525 288.732 125.525C288.952 125.525 289.171 125.525 289.39 125.525C289.609 125.525 289.828 125.525 290.047 125.525C290.265 125.525 290.483 125.525 290.701 125.525C290.918 125.525 291.135 125.525 291.352 125.525C291.569 125.525 291.786 125.525 292.002 125.525C292.218 125.525 292.434 125.525 292.649 125.525C292.865 125.525 293.08 125.525 293.294 125.525C293.509 125.525 293.723 125.525 293.937 125.525C294.151 125.525 294.364 125.525 294.577 125.525C294.79 125.525 295.003 125.525 295.215 125.525C295.428 125.525 295.64 125.525 295.851 125.525C296.063 125.525 296.274 125.525 296.484 125.525C296.695 125.525 296.906 125.525 297.115 125.525C297.325 125.525 297.535 125.525 297.744 125.525C297.953 125.525 298.162 125.525 298.37 125.525C298.579 125.525 298.787 125.525 298.994 125.525C299.202 125.525 299.409 125.525 299.616 125.525C299.822 125.525 300.029 125.525 300.235 125.525C300.44 125.525 300.646 125.525 300.851 125.525C301.056 125.525 301.261 125.525 301.465 125.525C301.67 125.525 301.873 125.525 302.077 125.525C302.28 125.525 302.483 125.525 302.686 125.525C302.889 125.525 303.091 125.525 303.293 125.525C303.495 125.525 303.696 125.525 303.897 125.525C304.098 125.525 304.298 125.525 304.499 125.525C304.699 125.525 304.898 125.525 305.098 125.525C305.297 125.525 305.496 125.525 305.694 125.525C305.893 125.525 306.091 125.525 306.288 125.525C306.486 125.525 306.683 125.525 306.88 125.525C307.077 125.525 307.273 125.525 307.469 125.525C307.665 125.525 307.86 125.525 308.055 125.525C308.25 125.525 308.445 125.525 308.639 125.525C308.833 125.525 309.027 125.525 309.22 125.525C309.413 125.525 309.606 125.525 309.798 125.525C309.991 125.525 310.183 125.525 310.374 125.525C310.566 125.525 310.757 125.525 310.948 125.525C311.138 125.525 311.328 125.525 311.518 125.525C311.708 125.525 311.897 125.525 312.086 125.525C312.275 125.525 312.463 125.525 312.651 125.525C312.839 125.525 313.027 125.525 313.214 125.525C313.401 125.525 313.587 125.525 313.773 125.525C313.96 125.525 314.145 125.525 314.331 125.525C314.516 125.525 314.701 125.525 314.885 125.525C315.069 125.525 315.253 125.525 315.436 125.525C315.62 125.525 315.803 125.525 315.985 125.525C316.168 125.525 316.35 125.525 316.531 125.525C316.713 125.525 316.894 125.525 317.075 125.525C317.255 125.525 317.435 125.525 317.615 125.525C317.795 125.525 317.974 125.525 318.153 125.525C318.331 125.525 318.51 125.525 318.688 125.525C318.865 125.525 319.043 125.525 319.219 125.525C319.396 125.525 319.573 125.525 319.749 125.525C319.925 125.525 320.1 125.525 320.275 125.525C320.45 125.525 320.624 125.525 320.798 125.525C320.972 125.525 321.146 125.525 321.319 125.525C321.492 125.525 321.664 125.525 321.836 125.525C322.009 125.525 322.18 125.525 322.351 125.525C322.522 125.525 322.693 125.525 322.863 125.525C323.033 125.525 323.203 125.525 323.372 125.525C323.541 125.525 323.71 125.525 323.878 125.525C324.046 125.525 324.214 125.525 324.381 125.525C324.548 125.525 324.715 125.525 324.881 125.525C325.047 125.525 325.213 125.525 325.378 125.525C325.543 125.525 325.708 125.525 325.872 125.525C326.036 125.525 326.2 125.525 326.363 125.525C326.526 125.525 326.689 125.525 326.851 125.525C327.013 125.525 327.174 125.525 327.336 125.525C327.497 125.525 327.657 125.525 327.817 125.525C327.978 125.525 328.137 125.525 328.296 125.525C328.455 125.525 328.614 125.525 328.772 125.525C328.93 125.525 329.088 125.525 329.245 125.525C329.402 125.525 329.558 125.525 329.714 125.525C329.87 125.525 330.026 125.525 330.181 125.525C330.336 125.525 330.49 125.525 330.644 125.525C330.798 125.525 330.952 125.525 331.104 125.525C331.257 125.525 331.41 125.525 331.561 125.525C331.713 125.525 331.865 125.525 332.015 125.525C332.166 125.525 332.316 125.525 332.466 125.525C332.616 125.525 332.765 125.525 332.914 125.525C333.062 125.525 333.21 125.525 333.358 125.525C333.506 125.525 333.653 125.525 333.799 125.525C333.946 125.525 334.092 125.525 334.237 125.525C334.383 125.525 334.527 125.525 334.672 125.525C334.816 125.525 334.96 125.525 335.103 125.525C335.247 125.525 335.389 125.525 335.532 125.525C335.674 125.525 335.815 125.525 335.956 125.525C336.098 125.525 336.238 125.525 336.378 125.525C336.518 125.525 336.658 125.525 336.796 125.525C336.935 125.525 337.074 125.525 337.212 125.525C337.349 125.525 337.487 125.525 337.623 125.525C337.76 125.525 337.896 125.525 338.032 125.525C338.167 125.525 338.302 125.525 338.437 125.525C338.571 125.525 338.705 125.525 338.838 125.525C338.972 125.525 339.105 125.525 339.237 125.525C339.369 125.525 339.501 125.525 339.632 125.525C339.763 125.525 339.893 125.525 340.023 125.525C340.153 125.525 340.283 125.525 340.411 125.525C340.54 125.525 340.668 125.525 340.796 125.525C340.924 125.525 341.051 125.525 341.177 125.525C341.304 125.525 341.43 125.525 341.555 125.525C341.681 125.525 341.805 125.525 341.93 125.525C342.054 125.525 342.178 125.525 342.301 125.525C342.424 125.525 342.546 125.525 342.668 125.525C342.79 125.525 342.911 125.525 343.032 125.525C343.153 125.525 343.273 125.525 343.392 125.525C343.512 125.525 343.631 125.525 343.749 125.525C343.868 125.525 343.986 125.525 344.103 125.525C344.22 125.525 344.337 125.525 344.453 125.525C344.569 125.525 344.684 125.525 344.799 125.525C344.914 125.525 345.028 125.525 345.142 125.525C345.255 125.525 345.368 125.525 345.481 125.525C345.593 125.525 345.705 125.525 345.816 125.525C345.928 125.525 346.038 125.525 346.148 125.525C346.258 125.525 346.368 125.525 346.477 125.525C346.586 125.525 346.694 125.525 346.801 125.525C346.909 125.525 347.016 125.525 347.123 125.525C347.229 125.525 347.335 125.525 347.44 125.525C347.545 125.525 347.65 125.525 347.754 125.525C347.858 125.525 347.961 125.525 348.064 125.525C348.167 125.525 348.269 125.525 348.37 125.525C348.472 125.525 348.573 125.525 348.673 125.525C348.773 125.525 348.873 125.525 348.972 125.525C349.071 125.525 349.169 125.525 349.267 125.525C349.365 125.525 349.462 125.525 349.559 125.525C349.655 125.525 349.751 125.525 349.846 125.525C349.942 125.525 350.036 125.525 350.13 125.525C350.224 125.525 350.318 125.525 350.41 125.525C350.503 125.525 350.595 125.525 350.687 125.525C350.778 125.525 350.869 125.525 350.959 125.525C351.05 125.525 351.139 125.525 351.228 125.525C351.317 125.525 351.405 125.525 351.493 125.525C351.581 125.525 351.668 125.525 351.754 125.525C351.841 125.525 351.926 125.525 352.011 125.525C352.097 125.525 352.181 125.525 352.265 125.525C352.349 125.525 352.432 125.525 352.514 125.525C352.597 125.525 352.679 125.525 352.76 125.525C352.841 125.525 352.922 125.525 353.002 125.525C353.082 125.525 353.161 125.525 353.24 125.525C353.318 125.525 353.396 125.525 353.473 125.525C353.551 125.525 353.627 125.525 353.703 125.525C353.779 125.525 353.855 125.525 353.929 125.525C354.004 125.525 354.078 125.525 354.151 125.525C354.225 125.525 354.297 125.525 354.369 125.525C354.441 125.525 354.513 125.525 354.583 125.525C354.654 125.525 354.724 125.525 354.793 125.525C354.863 125.525 354.931 125.525 354.999 125.525C355.067 125.525 355.135 125.525 355.201 125.525C355.268 125.525 355.334 125.525 355.399 125.525C355.465 125.525 355.529 125.525 355.593 125.525C355.657 125.525 355.721 125.525 355.783 125.525V124.525C355.721 124.525 355.657 124.525 355.593 124.525C355.529 124.525 355.465 124.525 355.399 124.525C355.334 124.525 355.268 124.525 355.201 124.525C355.135 124.525 355.067 124.525 354.999 124.525C354.931 124.525 354.863 124.525 354.793 124.525C354.724 124.525 354.654 124.525 354.583 124.525C354.513 124.525 354.441 124.525 354.369 124.525C354.297 124.525 354.225 124.525 354.151 124.525C354.078 124.525 354.004 124.525 353.929 124.525C353.855 124.525 353.779 124.525 353.703 124.525C353.627 124.525 353.551 124.525 353.473 124.525C353.396 124.525 353.318 124.525 353.24 124.525C353.161 124.525 353.082 124.525 353.002 124.525C352.922 124.525 352.841 124.525 352.76 124.525C352.679 124.525 352.597 124.525 352.514 124.525C352.432 124.525 352.349 124.525 352.265 124.525C352.181 124.525 352.097 124.525 352.011 124.525C351.926 124.525 351.841 124.525 351.754 124.525C351.668 124.525 351.581 124.525 351.493 124.525C351.405 124.525 351.317 124.525 351.228 124.525C351.139 124.525 351.05 124.525 350.959 124.525C350.869 124.525 350.778 124.525 350.687 124.525C350.595 124.525 350.503 124.525 350.41 124.525C350.318 124.525 350.224 124.525 350.13 124.525C350.036 124.525 349.942 124.525 349.846 124.525C349.751 124.525 349.655 124.525 349.559 124.525C349.462 124.525 349.365 124.525 349.267 124.525C349.169 124.525 349.071 124.525 348.972 124.525C348.873 124.525 348.773 124.525 348.673 124.525C348.573 124.525 348.472 124.525 348.37 124.525C348.269 124.525 348.167 124.525 348.064 124.525C347.961 124.525 347.858 124.525 347.754 124.525C347.65 124.525 347.545 124.525 347.44 124.525C347.335 124.525 347.229 124.525 347.123 124.525C347.016 124.525 346.909 124.525 346.801 124.525C346.694 124.525 346.586 124.525 346.477 124.525C346.368 124.525 346.258 124.525 346.148 124.525C346.038 124.525 345.928 124.525 345.816 124.525C345.705 124.525 345.593 124.525 345.481 124.525C345.368 124.525 345.255 124.525 345.142 124.525C345.028 124.525 344.914 124.525 344.799 124.525C344.684 124.525 344.569 124.525 344.453 124.525C344.337 124.525 344.22 124.525 344.103 124.525C343.986 124.525 343.868 124.525 343.749 124.525C343.631 124.525 343.512 124.525 343.392 124.525C343.273 124.525 343.153 124.525 343.032 124.525C342.911 124.525 342.79 124.525 342.668 124.525C342.546 124.525 342.424 124.525 342.301 124.525C342.178 124.525 342.054 124.525 341.93 124.525C341.805 124.525 341.681 124.525 341.555 124.525C341.43 124.525 341.304 124.525 341.177 124.525C341.051 124.525 340.924 124.525 340.796 124.525C340.668 124.525 340.54 124.525 340.411 124.525C340.283 124.525 340.153 124.525 340.023 124.525C339.893 124.525 339.763 124.525 339.632 124.525C339.501 124.525 339.369 124.525 339.237 124.525C339.105 124.525 338.972 124.525 338.838 124.525C338.705 124.525 338.571 124.525 338.437 124.525C338.302 124.525 338.167 124.525 338.032 124.525C337.896 124.525 337.76 124.525 337.623 124.525C337.487 124.525 337.349 124.525 337.212 124.525C337.074 124.525 336.935 124.525 336.796 124.525C336.658 124.525 336.518 124.525 336.378 124.525C336.238 124.525 336.098 124.525 335.956 124.525C335.815 124.525 335.674 124.525 335.532 124.525C335.389 124.525 335.247 124.525 335.103 124.525C334.96 124.525 334.816 124.525 334.672 124.525C334.527 124.525 334.383 124.525 334.237 124.525C334.092 124.525 333.946 124.525 333.799 124.525C333.653 124.525 333.506 124.525 333.358 124.525C333.21 124.525 333.062 124.525 332.914 124.525C332.765 124.525 332.616 124.525 332.466 124.525C332.316 124.525 332.166 124.525 332.015 124.525C331.865 124.525 331.713 124.525 331.561 124.525C331.41 124.525 331.257 124.525 331.104 124.525C330.952 124.525 330.798 124.525 330.644 124.525C330.49 124.525 330.336 124.525 330.181 124.525C330.026 124.525 329.87 124.525 329.714 124.525C329.558 124.525 329.402 124.525 329.245 124.525C329.088 124.525 328.93 124.525 328.772 124.525C328.614 124.525 328.455 124.525 328.296 124.525C328.137 124.525 327.978 124.525 327.817 124.525C327.657 124.525 327.497 124.525 327.336 124.525C327.174 124.525 327.013 124.525 326.851 124.525C326.689 124.525 326.526 124.525 326.363 124.525C326.2 124.525 326.036 124.525 325.872 124.525C325.708 124.525 325.543 124.525 325.378 124.525C325.213 124.525 325.047 124.525 324.881 124.525C324.715 124.525 324.548 124.525 324.381 124.525C324.214 124.525 324.046 124.525 323.878 124.525C323.71 124.525 323.541 124.525 323.372 124.525C323.203 124.525 323.033 124.525 322.863 124.525C322.693 124.525 322.522 124.525 322.351 124.525C322.18 124.525 322.009 124.525 321.836 124.525C321.664 124.525 321.492 124.525 321.319 124.525C321.146 124.525 320.972 124.525 320.798 124.525C320.624 124.525 320.45 124.525 320.275 124.525C320.1 124.525 319.925 124.525 319.749 124.525C319.573 124.525 319.396 124.525 319.219 124.525C319.043 124.525 318.865 124.525 318.688 124.525C318.51 124.525 318.331 124.525 318.153 124.525C317.974 124.525 317.795 124.525 317.615 124.525C317.435 124.525 317.255 124.525 317.075 124.525C316.894 124.525 316.713 124.525 316.531 124.525C316.35 124.525 316.168 124.525 315.985 124.525C315.803 124.525 315.62 124.525 315.436 124.525C315.253 124.525 315.069 124.525 314.885 124.525C314.701 124.525 314.516 124.525 314.331 124.525C314.145 124.525 313.96 124.525 313.773 124.525C313.587 124.525 313.401 124.525 313.214 124.525C313.027 124.525 312.839 124.525 312.651 124.525C312.463 124.525 312.275 124.525 312.086 124.525C311.897 124.525 311.708 124.525 311.518 124.525C311.328 124.525 311.138 124.525 310.948 124.525C310.757 124.525 310.566 124.525 310.374 124.525C310.183 124.525 309.991 124.525 309.798 124.525C309.606 124.525 309.413 124.525 309.22 124.525C309.027 124.525 308.833 124.525 308.639 124.525C308.445 124.525 308.25 124.525 308.055 124.525C307.86 124.525 307.665 124.525 307.469 124.525C307.273 124.525 307.077 124.525 306.88 124.525C306.683 124.525 306.486 124.525 306.288 124.525C306.091 124.525 305.893 124.525 305.694 124.525C305.496 124.525 305.297 124.525 305.098 124.525C304.898 124.525 304.699 124.525 304.499 124.525C304.298 124.525 304.098 124.525 303.897 124.525C303.696 124.525 303.495 124.525 303.293 124.525C303.091 124.525 302.889 124.525 302.686 124.525C302.483 124.525 302.28 124.525 302.077 124.525C301.873 124.525 301.67 124.525 301.465 124.525C301.261 124.525 301.056 124.525 300.851 124.525C300.646 124.525 300.44 124.525 300.235 124.525C300.029 124.525 299.822 124.525 299.616 124.525C299.409 124.525 299.202 124.525 298.994 124.525C298.787 124.525 298.579 124.525 298.37 124.525C298.162 124.525 297.953 124.525 297.744 124.525C297.535 124.525 297.325 124.525 297.115 124.525C296.906 124.525 296.695 124.525 296.484 124.525C296.274 124.525 296.063 124.525 295.851 124.525C295.64 124.525 295.428 124.525 295.215 124.525C295.003 124.525 294.79 124.525 294.577 124.525C294.364 124.525 294.151 124.525 293.937 124.525C293.723 124.525 293.509 124.525 293.294 124.525C293.08 124.525 292.865 124.525 292.649 124.525C292.434 124.525 292.218 124.525 292.002 124.525C291.786 124.525 291.569 124.525 291.352 124.525C291.135 124.525 290.918 124.525 290.701 124.525C290.483 124.525 290.265 124.525 290.047 124.525C289.828 124.525 289.609 124.525 289.39 124.525C289.171 124.525 288.952 124.525 288.732 124.525C288.512 124.525 288.292 124.525 288.071 124.525C287.85 124.525 287.629 124.525 287.408 124.525C287.187 124.525 286.965 124.525 286.743 124.525C286.521 124.525 286.298 124.525 286.075 124.525C285.853 124.525 285.629 124.525 285.406 124.525C285.182 124.525 284.959 124.525 284.734 124.525C284.51 124.525 284.285 124.525 284.061 124.525C283.836 124.525 283.61 124.525 283.385 124.525C283.159 124.525 282.933 124.525 282.707 124.525C282.48 124.525 282.254 124.525 282.026 124.525C281.799 124.525 281.572 124.525 281.344 124.525C281.117 124.525 280.888 124.525 280.66 124.525C280.432 124.525 280.203 124.525 279.974 124.525C279.744 124.525 279.515 124.525 279.285 124.525C279.055 124.525 278.825 124.525 278.595 124.525C278.364 124.525 278.133 124.525 277.902 124.525C277.671 124.525 277.44 124.525 277.208 124.525C276.976 124.525 276.744 124.525 276.511 124.525C276.279 124.525 276.046 124.525 275.813 124.525C275.58 124.525 275.346 124.525 275.112 124.525C274.878 124.525 274.644 124.525 274.41 124.525C274.175 124.525 273.941 124.525 273.705 124.525C273.47 124.525 273.235 124.525 272.999 124.525C272.763 124.525 272.527 124.525 272.291 124.525C272.054 124.525 271.818 124.525 271.581 124.525C271.344 124.525 271.106 124.525 270.869 124.525C270.631 124.525 270.393 124.525 270.155 124.525C269.916 124.525 269.678 124.525 269.439 124.525C269.2 124.525 268.961 124.525 268.721 124.525C268.482 124.525 268.242 124.525 268.001 124.525C267.761 124.525 267.521 124.525 267.28 124.525C267.039 124.525 266.798 124.525 266.557 124.525C266.315 124.525 266.074 124.525 265.832 124.525C265.59 124.525 265.347 124.525 265.105 124.525C264.862 124.525 264.619 124.525 264.376 124.525C264.133 124.525 263.89 124.525 263.646 124.525C263.402 124.525 263.158 124.525 262.914 124.525C262.669 124.525 262.425 124.525 262.18 124.525C261.935 124.525 261.689 124.525 261.444 124.525C261.198 124.525 260.953 124.525 260.706 124.525C260.46 124.525 260.214 124.525 259.967 124.525C259.721 124.525 259.474 124.525 259.226 124.525C258.979 124.525 258.732 124.525 258.484 124.525C258.236 124.525 257.988 124.525 257.74 124.525C257.491 124.525 257.243 124.525 256.994 124.525C256.745 124.525 256.496 124.525 256.246 124.525C255.997 124.525 255.747 124.525 255.497 124.525C255.247 124.525 254.997 124.525 254.746 124.525C254.496 124.525 254.245 124.525 253.994 124.525C253.743 124.525 253.491 124.525 253.24 124.525C252.988 124.525 252.736 124.525 252.484 124.525C252.232 124.525 251.979 124.525 251.727 124.525C251.474 124.525 251.221 124.525 250.968 124.525C250.715 124.525 250.461 124.525 250.208 124.525C249.954 124.525 249.7 124.525 249.446 124.525C249.191 124.525 248.937 124.525 248.682 124.525C248.428 124.525 248.173 124.525 247.917 124.525C247.662 124.525 247.407 124.525 247.151 124.525C246.895 124.525 246.639 124.525 246.383 124.525C246.127 124.525 245.87 124.525 245.613 124.525C245.357 124.525 245.1 124.525 244.843 124.525C244.585 124.525 244.328 124.525 244.07 124.525C243.813 124.525 243.555 124.525 243.296 124.525C243.038 124.525 242.78 124.525 242.521 124.525C242.263 124.525 242.004 124.525 241.745 124.525C241.485 124.525 241.226 124.525 240.966 124.525C240.707 124.525 240.447 124.525 240.187 124.525C239.927 124.525 239.667 124.525 239.406 124.525C239.146 124.525 238.885 124.525 238.624 124.525C238.363 124.525 238.102 124.525 237.84 124.525C237.579 124.525 237.317 124.525 237.055 124.525C236.794 124.525 236.532 124.525 236.269 124.525C236.007 124.525 235.744 124.525 235.482 124.525C235.219 124.525 234.956 124.525 234.693 124.525C234.43 124.525 234.166 124.525 233.903 124.525C233.639 124.525 233.375 124.525 233.111 124.525C232.847 124.525 232.583 124.525 232.318 124.525C232.054 124.525 231.789 124.525 231.524 124.525C231.26 124.525 230.994 124.525 230.729 124.525C230.464 124.525 230.198 124.525 229.933 124.525C229.667 124.525 229.401 124.525 229.135 124.525C228.869 124.525 228.603 124.525 228.336 124.525C228.07 124.525 227.803 124.525 227.536 124.525C227.269 124.525 227.002 124.525 226.735 124.525C226.467 124.525 226.2 124.525 225.932 124.525C225.665 124.525 225.397 124.525 225.129 124.525C224.861 124.525 224.592 124.525 224.324 124.525C224.055 124.525 223.787 124.525 223.518 124.525C223.249 124.525 222.98 124.525 222.711 124.525C222.442 124.525 222.172 124.525 221.903 124.525C221.633 124.525 221.364 124.525 221.094 124.525C220.824 124.525 220.554 124.525 220.283 124.525C220.013 124.525 219.743 124.525 219.472 124.525C219.201 124.525 218.931 124.525 218.66 124.525C218.389 124.525 218.117 124.525 217.846 124.525C217.575 124.525 217.303 124.525 217.032 124.525C216.76 124.525 216.488 124.525 216.216 124.525C215.944 124.525 215.672 124.525 215.4 124.525C215.127 124.525 214.855 124.525 214.582 124.525C214.309 124.525 214.036 124.525 213.763 124.525C213.49 124.525 213.217 124.525 212.944 124.525C212.671 124.525 212.397 124.525 212.123 124.525C211.85 124.525 211.576 124.525 211.302 124.525C211.028 124.525 210.754 124.525 210.48 124.525C210.205 124.525 209.931 124.525 209.656 124.525C209.382 124.525 209.107 124.525 208.832 124.525C208.557 124.525 208.282 124.525 208.007 124.525C207.732 124.525 207.457 124.525 207.181 124.525C206.906 124.525 206.63 124.525 206.354 124.525C206.079 124.525 205.803 124.525 205.527 124.525C205.251 124.525 204.974 124.525 204.698 124.525C204.422 124.525 204.145 124.525 203.869 124.525C203.592 124.525 203.315 124.525 203.038 124.525C202.762 124.525 202.485 124.525 202.207 124.525C201.93 124.525 201.653 124.525 201.376 124.525C201.098 124.525 200.821 124.525 200.543 124.525C200.265 124.525 199.988 124.525 199.71 124.525C199.432 124.525 199.154 124.525 198.875 124.525C198.597 124.525 198.319 124.525 198.041 124.525C197.762 124.525 197.484 124.525 197.205 124.525C196.926 124.525 196.648 124.525 196.369 124.525C196.09 124.525 195.811 124.525 195.532 124.525C195.252 124.525 194.973 124.525 194.694 124.525C194.414 124.525 194.135 124.525 193.855 124.525C193.576 124.525 193.296 124.525 193.016 124.525C192.736 124.525 192.456 124.525 192.176 124.525C191.896 124.525 191.616 124.525 191.336 124.525C191.056 124.525 190.775 124.525 190.495 124.525C190.214 124.525 189.934 124.525 189.653 124.525C189.372 124.525 189.092 124.525 188.811 124.525C188.53 124.525 188.249 124.525 187.968 124.525C187.687 124.525 187.406 124.525 187.124 124.525C186.843 124.525 186.562 124.525 186.28 124.525C185.999 124.525 185.717 124.525 185.436 124.525C185.154 124.525 184.872 124.525 184.59 124.525C184.309 124.525 184.027 124.525 183.745 124.525C183.463 124.525 183.181 124.525 182.898 124.525C182.616 124.525 182.334 124.525 182.052 124.525C181.769 124.525 181.487 124.525 181.204 124.525C180.922 124.525 180.639 124.525 180.357 124.525C180.074 124.525 179.791 124.525 179.508 124.525C179.226 124.525 178.943 124.525 178.66 124.525C178.377 124.525 178.094 124.525 177.811 124.525C177.527 124.525 177.244 124.525 176.961 124.525C176.678 124.525 176.394 124.525 176.111 124.525C175.827 124.525 175.544 124.525 175.26 124.525C174.977 124.525 174.693 124.525 174.41 124.525C174.126 124.525 173.842 124.525 173.558 124.525C173.275 124.525 172.991 124.525 172.707 124.525C172.423 124.525 172.139 124.525 171.855 124.525C171.571 124.525 171.287 124.525 171.002 124.525C170.718 124.525 170.434 124.525 170.15 124.525C169.866 124.525 169.581 124.525 169.297 124.525C169.012 124.525 168.728 124.525 168.444 124.525C168.159 124.525 167.874 124.525 167.59 124.525C167.305 124.525 167.021 124.525 166.736 124.525C166.451 124.525 166.167 124.525 165.882 124.525C165.597 124.525 165.312 124.525 165.027 124.525C164.743 124.525 164.458 124.525 164.173 124.525C163.888 124.525 163.603 124.525 163.318 124.525C163.033 124.525 162.748 124.525 162.463 124.525C162.178 124.525 161.892 124.525 161.607 124.525C161.322 124.525 161.037 124.525 160.752 124.525C160.466 124.525 160.181 124.525 159.896 124.525C159.611 124.525 159.325 124.525 159.04 124.525C158.755 124.525 158.469 124.525 158.184 124.525C157.898 124.525 157.613 124.525 157.328 124.525C157.042 124.525 156.757 124.525 156.471 124.525C156.186 124.525 155.9 124.525 155.615 124.525C155.329 124.525 155.044 124.525 154.758 124.525C154.472 124.525 154.187 124.525 153.901 124.525C153.616 124.525 153.33 124.525 153.044 124.525C152.759 124.525 152.473 124.525 152.187 124.525C151.902 124.525 151.616 124.525 151.33 124.525C151.045 124.525 150.759 124.525 150.473 124.525C150.188 124.525 149.902 124.525 149.616 124.525C149.331 124.525 149.045 124.525 148.759 124.525C148.473 124.525 148.188 124.525 147.902 124.525C147.616 124.525 147.331 124.525 147.045 124.525C146.759 124.525 146.473 124.525 146.188 124.525C145.902 124.525 145.616 124.525 145.331 124.525C145.045 124.525 144.759 124.525 144.473 124.525C144.188 124.525 143.902 124.525 143.616 124.525C143.331 124.525 143.045 124.525 142.759 124.525C142.474 124.525 142.188 124.525 141.903 124.525C141.617 124.525 141.331 124.525 141.046 124.525C140.76 124.525 140.475 124.525 140.189 124.525C139.903 124.525 139.618 124.525 139.332 124.525C139.047 124.525 138.761 124.525 138.476 124.525C138.19 124.525 137.905 124.525 137.619 124.525C137.334 124.525 137.049 124.525 136.763 124.525C136.478 124.525 136.193 124.525 135.907 124.525C135.622 124.525 135.337 124.525 135.051 124.525C134.766 124.525 134.481 124.525 134.196 124.525C133.91 124.525 133.625 124.525 133.34 124.525C133.055 124.525 132.77 124.525 132.485 124.525C132.2 124.525 131.915 124.525 131.63 124.525C131.345 124.525 131.06 124.525 130.775 124.525C130.49 124.525 130.205 124.525 129.92 124.525C129.635 124.525 129.35 124.525 129.066 124.525C128.781 124.525 128.496 124.525 128.212 124.525C127.927 124.525 127.642 124.525 127.358 124.525C127.073 124.525 126.789 124.525 126.504 124.525C126.22 124.525 125.935 124.525 125.651 124.525C125.367 124.525 125.082 124.525 124.798 124.525C124.514 124.525 124.23 124.525 123.946 124.525C123.661 124.525 123.377 124.525 123.093 124.525C122.809 124.525 122.525 124.525 122.241 124.525C121.958 124.525 121.674 124.525 121.39 124.525C121.106 124.525 120.822 124.525 120.539 124.525C120.255 124.525 119.972 124.525 119.688 124.525C119.405 124.525 119.121 124.525 118.838 124.525C118.554 124.525 118.271 124.525 117.988 124.525C117.705 124.525 117.421 124.525 117.138 124.525C116.855 124.525 116.572 124.525 116.289 124.525C116.006 124.525 115.724 124.525 115.441 124.525C115.158 124.525 114.875 124.525 114.593 124.525C114.31 124.525 114.027 124.525 113.745 124.525C113.462 124.525 113.18 124.525 112.898 124.525C112.616 124.525 112.333 124.525 112.051 124.525C111.769 124.525 111.487 124.525 111.205 124.525C110.923 124.525 110.641 124.525 110.359 124.525C110.078 124.525 109.796 124.525 109.514 124.525C109.233 124.525 108.951 124.525 108.67 124.525C108.388 124.525 108.107 124.525 107.826 124.525C107.545 124.525 107.264 124.525 106.983 124.525C106.702 124.525 106.421 124.525 106.14 124.525C105.859 124.525 105.578 124.525 105.298 124.525C105.017 124.525 104.737 124.525 104.456 124.525C104.176 124.525 103.895 124.525 103.615 124.525C103.335 124.525 103.055 124.525 102.775 124.525C102.495 124.525 102.215 124.525 101.935 124.525C101.656 124.525 101.376 124.525 101.096 124.525C100.817 124.525 100.537 124.525 100.258 124.525C99.9788 124.525 99.6996 124.525 99.4205 124.525C99.1414 124.525 98.8625 124.525 98.5836 124.525C98.3048 124.525 98.0261 124.525 97.7475 124.525C97.4689 124.525 97.1904 124.525 96.912 124.525C96.6337 124.525 96.3554 124.525 96.0773 124.525C95.7992 124.525 95.5212 124.525 95.2434 124.525C94.9655 124.525 94.6878 124.525 94.4102 124.525C94.1326 124.525 93.8551 124.525 93.5778 124.525C93.3004 124.525 93.0232 124.525 92.7462 124.525C92.4691 124.525 92.1922 124.525 91.9154 124.525C91.6386 124.525 91.3619 124.525 91.0854 124.525C90.8088 124.525 90.5324 124.525 90.2562 124.525C89.9799 124.525 89.7038 124.525 89.4279 124.525C89.1519 124.525 88.8761 124.525 88.6004 124.525C88.3247 124.525 88.0492 124.525 87.7738 124.525C87.4984 124.525 87.2231 124.525 86.948 124.525C86.6729 124.525 86.398 124.525 86.1232 124.525C85.8484 124.525 85.5737 124.525 85.2992 124.525C85.0247 124.525 84.7504 124.525 84.4762 124.525C84.202 124.525 83.928 124.525 83.6541 124.525C83.3802 124.525 83.1065 124.525 82.8329 124.525C82.5594 124.525 82.286 124.525 82.0127 124.525C81.7395 124.525 81.4664 124.525 81.1935 124.525C80.9206 124.525 80.6478 124.525 80.3752 124.525C80.1026 124.525 79.8302 124.525 79.5579 124.525C79.2857 124.525 79.0136 124.525 78.7416 124.525C78.4697 124.525 78.198 124.525 77.9264 124.525C77.6548 124.525 77.3834 124.525 77.1121 124.525C76.8409 124.525 76.5698 124.525 76.2989 124.525C76.028 124.525 75.7573 124.525 75.4868 124.525C75.2162 124.525 74.9458 124.525 74.6757 124.525C74.4055 124.525 74.1355 124.525 73.8656 124.525C73.5958 124.525 73.3262 124.525 73.0567 124.525C72.7873 124.525 72.518 124.525 72.2489 124.525C71.9798 124.525 71.7109 124.525 71.4422 124.525C71.1735 124.525 70.9049 124.525 70.6366 124.525C70.3682 124.525 70.1001 124.525 69.8321 124.525C69.5642 124.525 69.2964 124.525 69.0288 124.525C68.7612 124.525 68.4939 124.525 68.2267 124.525C67.9595 124.525 67.6925 124.525 67.4257 124.525C67.1589 124.525 66.8923 124.525 66.6259 124.525C66.3595 124.525 66.0933 124.525 65.8274 124.525C65.5614 124.525 65.2956 124.525 65.03 124.525C64.7644 124.525 64.499 124.525 64.2338 124.525C63.9687 124.525 63.7037 124.525 63.4389 124.525C63.1742 124.525 62.9096 124.525 62.6453 124.525C62.3809 124.525 62.1168 124.525 61.8529 124.525C61.589 124.525 61.3253 124.525 61.0618 124.525C60.7983 124.525 60.535 124.525 60.2719 124.525C60.0089 124.525 59.746 124.525 59.4834 124.525C59.2208 124.525 58.9584 124.525 58.6962 124.525C58.434 124.525 58.172 124.525 57.9103 124.525C57.6485 124.525 57.387 124.525 57.1257 124.525C56.8644 124.525 56.6034 124.525 56.3425 124.525C56.0817 124.525 55.821 124.525 55.5606 124.525C55.3003 124.525 55.0401 124.525 54.7802 124.525C54.5202 124.525 54.2605 124.525 54.0011 124.525C53.7416 124.525 53.4824 124.525 53.2234 124.525C52.9644 124.525 52.7056 124.525 52.4471 124.525C52.1886 124.525 51.9303 124.525 51.6722 124.525C51.4142 124.525 51.1564 124.525 50.8988 124.525C50.6412 124.525 50.3839 124.525 50.1268 124.525C49.8697 124.525 49.6129 124.525 49.3563 124.525C49.0997 124.525 48.8434 124.525 48.5873 124.525C48.3312 124.525 48.0753 124.525 47.8197 124.525C47.5641 124.525 47.3088 124.525 47.0536 124.525C46.7985 124.525 46.5437 124.525 46.2891 124.525C46.0345 124.525 45.7802 124.525 45.5261 124.525C45.272 124.525 45.0181 124.525 44.7646 124.525C44.511 124.525 44.2577 124.525 44.0046 124.525C43.7516 124.525 43.4988 124.525 43.2462 124.525C42.9937 124.525 42.7414 124.525 42.4894 124.525C42.2374 124.525 41.9857 124.525 41.7342 124.525C41.4827 124.525 41.2315 124.525 40.9806 124.525C40.7296 124.525 40.4789 124.525 40.2285 124.525C39.9781 124.525 39.728 124.525 39.4781 124.525C39.2283 124.525 38.9787 124.525 38.7294 124.525C38.48 124.525 38.231 124.525 37.9822 124.525C37.7335 124.525 37.485 124.525 37.2368 124.525C36.9886 124.525 36.7406 124.525 36.493 124.525C36.2453 124.525 35.998 124.525 35.7509 124.525C35.5038 124.525 35.257 124.525 35.0105 124.525C34.764 124.525 34.5177 124.525 34.2718 124.525C34.0258 124.525 33.7802 124.525 33.5348 124.525C33.2894 124.525 33.0443 124.525 32.7995 124.525C32.5547 124.525 32.3102 124.525 32.066 124.525C31.8218 124.525 31.5779 124.525 31.3343 124.525C31.0907 124.525 30.8473 124.525 30.6043 124.525C30.3613 124.525 30.1186 124.525 29.8761 124.525C29.6337 124.525 29.3916 124.525 29.1497 124.525C28.9079 124.525 28.6664 124.525 28.4252 124.525C28.1839 124.525 27.943 124.525 27.7024 124.525C27.4618 124.525 27.2215 124.525 26.9815 124.525C26.7415 124.525 26.5018 124.525 26.2624 124.525C26.023 124.525 25.7839 124.525 25.5451 124.525C25.3064 124.525 25.0679 124.525 24.8298 124.525C24.5916 124.525 24.3538 124.525 24.1163 124.525C23.8788 124.525 23.6416 124.525 23.4047 124.525C23.1678 124.525 22.9313 124.525 22.695 124.525C22.4588 124.525 22.2229 124.525 21.9873 124.525C21.7517 124.525 21.5164 124.525 21.2815 124.525C21.0465 124.525 20.8119 124.525 20.5776 124.525C20.3433 124.525 20.1093 124.525 19.8757 124.525C19.642 124.525 19.4087 124.525 19.1757 124.525C18.9427 124.525 18.7101 124.525 18.4778 124.525C18.2454 124.525 18.0134 124.525 17.7818 124.525C17.5501 124.525 17.3188 124.525 17.0878 124.525C16.8568 124.525 16.6262 124.525 16.3959 124.525C16.1655 124.525 15.9356 124.525 15.7059 124.525C15.4763 124.525 15.247 124.525 15.0181 124.525C14.7891 124.525 14.5605 124.525 14.3323 124.525C14.104 124.525 13.8761 124.525 13.6485 124.525C13.4209 124.525 13.1937 124.525 12.9668 124.525C12.74 124.525 12.5134 124.525 12.2873 124.525C12.0611 124.525 11.8353 124.525 11.6098 124.525C11.3843 124.525 11.1592 124.525 10.9344 124.525C10.7097 124.525 10.4853 124.525 10.2612 124.525C10.0372 124.525 9.81348 124.525 9.59015 124.525C9.36681 124.525 9.14384 124.525 8.92123 124.525C8.69861 124.525 8.47636 124.525 8.25448 124.525C8.03259 124.525 7.81106 124.525 7.5899 124.525C7.36874 124.525 7.14795 124.525 6.92753 124.525C6.7071 124.525 6.48704 124.525 6.26735 124.525C6.04766 124.525 5.82834 124.525 5.6094 124.525C5.39045 124.525 5.17187 124.525 4.95367 124.525C4.73547 124.525 4.51764 124.525 4.30019 124.525C4.08274 124.525 3.86566 124.525 3.64896 124.525C3.43226 124.525 3.21594 124.525 3 124.525V125.525ZM362.983 121.966L458.392 1.33507L457.608 0.714731L362.199 121.345L362.983 121.966ZM355.783 125.525C358.659 125.525 361.211 124.206 362.983 121.966L362.199 121.345C360.604 123.361 358.334 124.525 355.783 124.525V125.525Z" fill="white" fill-opacity="0.5"/>
</svg>
