<svg width="21" height="21" viewBox="0 0 21 21" fill="none" xmlns="http://www.w3.org/2000/svg">
<path d="M18.7887 2.72007C15.8287 -0.229932 11.0287 -0.229932 8.08868 2.72007C6.01868 4.77007 5.39868 7.72007 6.19868 10.3201L1.49868 15.0201C1.16868 15.3601 0.938681 16.0301 1.00868 16.5101L1.30868 18.6901C1.41868 19.4101 2.08868 20.0901 2.80868 20.1901L4.98868 20.4901C5.46868 20.5601 6.13868 20.3401 6.47868 19.9901L7.29868 19.1701C7.49868 18.9801 7.49868 18.6601 7.29868 18.4601L5.35868 16.5201C5.06868 16.2301 5.06868 15.7501 5.35868 15.4601C5.64868 15.1701 6.12868 15.1701 6.41868 15.4601L8.36868 17.4101C8.55868 17.6001 8.87868 17.6001 9.06868 17.4101L11.1887 15.3001C13.7787 16.1101 16.7287 15.4801 18.7887 13.4301C21.7387 10.4801 21.7387 5.67007 18.7887 2.72007ZM13.4987 10.5001C12.1187 10.5001 10.9987 9.38007 10.9987 8.00007C10.9987 6.62007 12.1187 5.50007 13.4987 5.50007C14.8787 5.50007 15.9987 6.62007 15.9987 8.00007C15.9987 9.38007 14.8787 10.5001 13.4987 10.5001Z" fill="#B1A936"/>
</svg>
