<svg width="34" height="35" viewBox="0 0 34 35" fill="none" xmlns="http://www.w3.org/2000/svg">
<g id="mailbox-fill">
<path id="Vector" d="M9.9139 6.03418C6.00192 6.03418 2.83057 9.2061 2.83057 13.1175V27.2403C2.83057 28.0223 3.46552 28.6555 4.24723 28.6569L29.7472 28.7008C30.5304 28.7023 31.1639 28.0676 31.1639 27.2842V13.1175C31.1639 9.2061 27.9926 6.03418 24.0806 6.03418H9.9139ZM9.9139 8.86751C11.8737 8.86751 14.1639 10.7361 14.1639 13.1175V25.8675L5.6639 25.7783V13.1175C5.6639 10.7361 7.95408 8.86751 9.9139 8.86751ZM19.8306 14.5342H25.4972C26.2797 14.5342 26.9139 15.1688 26.9139 15.9508V18.7842C26.9139 20.0464 25.3714 20.6953 24.4791 19.8028L22.0441 17.3675H19.8306C19.0481 17.3675 18.4139 16.7328 18.4139 15.9508C18.4139 15.1688 19.0481 14.5342 19.8306 14.5342Z" fill="#2F3030"/>
</g>
</svg>
