<svg width="44" height="44" viewBox="0 0 44 44" fill="none" xmlns="http://www.w3.org/2000/svg">
<g clip-path="url(#clip0_33_9620)">
<path d="M22.2194 41.2864C32.9116 41.2864 41.5794 32.6186 41.5794 21.9264C41.5794 11.2342 32.9116 2.56641 22.2194 2.56641C11.5271 2.56641 2.85938 11.2342 2.85938 21.9264C2.85938 32.6186 11.5271 41.2864 22.2194 41.2864Z" fill="url(#paint0_linear_33_9620)"/>
<path d="M21.9998 0.953125C10.3765 0.953125 0.953125 10.3765 0.953125 21.9998C0.953125 33.6231 10.3765 43.0465 21.9998 43.0465C33.6231 43.0465 43.0465 33.6231 43.0465 21.9998C43.0465 10.3765 33.6231 0.953125 21.9998 0.953125ZM21.9998 40.7291C11.6525 40.7291 3.27046 32.3471 3.27046 21.9998C3.27046 11.6525 11.6525 3.27046 21.9998 3.27046C32.3471 3.27046 40.7291 11.6525 40.7291 21.9998C40.7291 32.3471 32.3471 40.7291 21.9998 40.7291Z" fill="#8DC641"/>
<path d="M29.3434 17.2188L24.65 24.1782H29.3434V17.2188ZM31.1254 14.4028V24.1782H33.186V25.9455H31.1254V29.5975H29.3434V25.9455H22.714V24.0388L29.402 14.4028H31.1254ZM20.7414 27.8228V29.5975H10.8047V29.5462C10.9 27.8815 11.3327 26.6642 12.154 25.6595C12.8287 24.8308 13.6427 24.2075 15.322 23.1588C15.3147 23.1588 15.916 22.7848 16.0847 22.6748C16.9867 22.0955 17.566 21.6482 18.0207 21.1202C18.5927 20.4528 18.8934 19.7268 18.8934 18.8762C18.8934 17.2188 17.72 16.0748 16.026 16.0748C14.0607 16.0748 13.0487 17.5708 12.99 19.8222V19.8662H11.2227V19.8222L11.2007 19.4115C11.2007 16.4048 13.1587 14.4028 16.1067 14.4028C18.9887 14.4028 20.866 16.1482 20.866 18.8395C20.866 20.2108 20.3747 21.3255 19.4287 22.3155C18.7174 23.0562 17.984 23.5622 16.3267 24.5668C16.3047 24.5815 16.2827 24.5962 16.2607 24.6108C16.18 24.6548 15.8207 24.8675 15.7254 24.9262C14.9334 25.4028 14.4567 25.7328 14.0314 26.1362C13.5107 26.6348 13.166 27.1775 13.0047 27.8228H20.7414Z" fill="white"/>
</g>
<defs>
<linearGradient id="paint0_linear_33_9620" x1="7.40502" y1="4.0837" x2="33.9517" y2="36.057" gradientUnits="userSpaceOnUse">
<stop stop-color="#333333"/>
<stop offset="1"/>
</linearGradient>
<clipPath id="clip0_33_9620">
<rect width="44" height="44" fill="white"/>
</clipPath>
</defs>
</svg>
