<svg width="25" height="25" viewBox="0 0 25 25" fill="none" xmlns="http://www.w3.org/2000/svg">
<path fill-rule="evenodd" clip-rule="evenodd" d="M12.5 23.5C18.5751 23.5 23.5 18.5751 23.5 12.5C23.5 6.42487 18.5751 1.5 12.5 1.5C6.42487 1.5 1.5 6.42487 1.5 12.5C1.5 18.5751 6.42487 23.5 12.5 23.5ZM5.5 11.3912C5.5 8.13777 8.13753 5.5 11.3911 5.5C14.6447 5.5 17.2822 8.13777 17.2822 11.3912C17.2822 12.7439 16.8228 14.0208 16.0564 15.015L19.2843 18.2257C19.5719 18.5136 19.5719 18.9967 19.2843 19.2846C18.9967 19.5718 18.5133 19.5718 18.2257 19.2846L15.02 16.0518C14.0256 16.8177 12.7436 17.2823 11.3911 17.2823C8.13753 17.2823 5.5 14.6446 5.5 11.3912ZM15.8095 11.3912C15.8095 8.95075 13.8313 6.97279 11.3911 6.97279C8.95094 6.97279 6.97278 8.95075 6.97278 11.3912C6.97278 13.8316 8.95094 15.8096 11.3911 15.8096C13.8313 15.8096 15.8095 13.8316 15.8095 11.3912Z" fill="#B1A936"/>
</svg>
