<svg width="18" height="16" viewBox="0 0 18 16" fill="none" xmlns="http://www.w3.org/2000/svg">
<path fill-rule="evenodd" clip-rule="evenodd" d="M9.23779 0.219315L11.4782 5.39919L17.0963 5.92851C17.1996 5.93772 17.2876 6.00753 17.3198 6.10618C17.3521 6.20482 17.3224 6.31316 17.2444 6.38163L13.009 10.1132L14.242 15.6203H14.2419C14.2644 15.7212 14.2248 15.826 14.1411 15.8866C14.0573 15.9473 13.9456 15.9525 13.8566 15.8997L8.99931 13.0257L4.14296 15.9001C4.05131 15.9549 3.93536 15.9479 3.85094 15.8824C3.76653 15.8169 3.73095 15.7062 3.76137 15.6038L4.99043 10.1136L0.755692 6.38235C0.67422 6.31192 0.644776 6.19843 0.681828 6.0972C0.718882 5.99598 0.814586 5.92825 0.922437 5.92715L6.52321 5.39942L8.76364 0.21955H8.76352C8.8045 0.124584 8.89812 0.0629883 9.00155 0.0629883C9.1051 0.0629883 9.1986 0.124581 9.23958 0.21955L9.23779 0.219315Z" fill="#EBEBEB"/>
</svg>
