<svg width="34" height="35" viewBox="0 0 34 35" fill="none" xmlns="http://www.w3.org/2000/svg">
<g id="telephone-fill">
<path id="Vector" d="M9.81502 4.65039C7.42369 4.65039 4.23621 7.83787 4.23621 10.2292C4.23621 13.309 7.42371 18.9941 10.6112 22.1816C10.954 22.5245 11.8621 23.4326 12.205 23.7754C15.3925 26.9629 21.0776 30.1504 24.1574 30.1504C26.5487 30.1504 29.7362 26.9629 29.7362 24.5716C29.7362 22.1817 26.5487 18.9941 24.1574 18.9941C23.3612 18.9941 20.4783 20.6431 20.1737 20.5879C17.6322 20.1289 14.33 16.7445 13.7987 14.2129C13.725 13.8601 15.3925 11.0254 15.3925 10.2292C15.3925 7.83787 12.2049 4.65039 9.81502 4.65039Z" fill="#2F3030"/>
</g>
</svg>
