<svg width="16" height="14" viewBox="0 0 16 14" fill="none" xmlns="http://www.w3.org/2000/svg">
<path fill-rule="evenodd" clip-rule="evenodd" d="M0.75 9.29877V2.51219C0.75 1.26282 1.75736 0.25 3 0.25H13.5C14.7426 0.25 15.75 1.26282 15.75 2.51219V9.29877C15.75 10.5481 14.7426 11.561 13.5 11.561H10.3136L8.3597 13.2799C7.14735 14.3464 5.25 13.4808 5.25 11.8612V11.561H3C1.75736 11.561 0.75 10.5481 0.75 9.29877ZM6.57089 10.8457C6.31746 10.3736 5.82099 10.0528 5.25 10.0528H3C2.58579 10.0528 2.25 9.71523 2.25 9.29877V2.51219C2.25 2.09573 2.58579 1.75813 3 1.75813H13.5C13.9142 1.75813 14.25 2.09573 14.25 2.51219V9.29877C14.25 9.71523 13.9142 10.0528 13.5 10.0528H10.3136C9.95027 10.0528 9.59928 10.1854 9.32585 10.426L7.37194 12.1449C7.12947 12.3582 6.75 12.1851 6.75 11.8612V11.561C6.75 11.5145 6.74791 11.4686 6.74382 11.4232C6.72594 11.2247 6.6698 11.0373 6.58287 10.8685C6.57894 10.8608 6.57494 10.8532 6.57089 10.8457Z" fill="#807F73"/>
</svg>
