<svg width="24" height="24" viewBox="0 0 24 24" fill="none" xmlns="http://www.w3.org/2000/svg">
<g id="trash2">
<path id="Vector" d="M11.998 1.95337C10.893 1.95337 9.99804 2.84837 9.99804 3.95336H4.99805C4.44605 3.95336 3.99805 4.40136 3.99805 4.95336C3.99805 5.50536 4.44605 5.95336 4.99805 5.95336V17.9533C4.99805 20.1433 6.80304 21.9533 8.99804 21.9533H14.998C17.193 21.9533 18.998 20.1483 18.998 17.9533V5.95336C19.55 5.95336 19.998 5.50536 19.998 4.95336C19.998 4.40136 19.55 3.95336 18.998 3.95336H13.998C13.998 2.84837 13.103 1.95337 11.998 1.95337ZM6.99804 5.95336H16.998V17.9533C16.998 19.0503 16.108 19.9533 15.029 19.9533L8.99804 19.9223C7.89604 19.9223 6.99804 19.0323 6.99804 17.9533V5.95336ZM9.99804 7.95335C9.44604 7.95335 8.99804 8.40135 8.99804 8.95335V16.9533C8.99804 17.5053 9.44604 17.9533 9.99804 17.9533C10.55 17.9533 10.998 17.5053 10.998 16.9533V8.95335C10.998 8.40135 10.55 7.95335 9.99804 7.95335ZM13.998 7.95335C13.446 7.95335 12.998 8.40135 12.998 8.95335V16.9533C12.998 17.5053 13.446 17.9533 13.998 17.9533C14.55 17.9533 14.998 17.5053 14.998 16.9533V8.95335C14.998 8.40135 14.55 7.95335 13.998 7.95335Z" fill="#2F3030"/>
</g>
</svg>
