<svg width="44" height="44" viewBox="0 0 44 44" fill="none" xmlns="http://www.w3.org/2000/svg">
<path d="M2.75 22C2.75 11.3685 11.3685 2.75 22 2.75C32.6315 2.75 41.25 11.3685 41.25 22C41.25 32.6315 32.6315 41.25 22 41.25C11.3685 41.25 2.75 32.6315 2.75 22Z" fill="#172A73"/>
<path d="M7.66406 13.3989V14.2181L10.6587 14.6896C12.7806 15.0236 14.4908 16.6186 14.9852 18.7245L18.4908 33.6566C18.5776 34.0262 18.905 34.2872 19.2819 34.2872H24.2013C24.5258 34.2872 24.8192 34.0928 24.9477 33.7925L33.4336 13.9707C33.5493 13.7004 33.3526 13.3989 33.0603 13.3989H28.5279C28.2006 13.3989 27.9052 13.5967 27.7784 13.9007L22.0939 27.5292L19.8262 15.4014C19.6091 14.2401 18.6023 13.3989 17.4295 13.3989H7.66406Z" fill="white"/>
</svg>
