<svg width="40" height="41" viewBox="0 0 40 41" fill="none" xmlns="http://www.w3.org/2000/svg">
<g id="YouTube/vuvietduc.com">
<path id="Container" d="M0 13.9167C0 9.17091 0 6.79803 0.938221 4.99188C1.72885 3.46985 2.96985 2.22885 4.49188 1.43822C6.29803 0.5 8.67091 0.5 13.4167 0.5H26.5833C31.3291 0.5 33.702 0.5 35.5081 1.43822C37.0301 2.22885 38.2711 3.46985 39.0618 4.99188C40 6.79803 40 9.17091 40 13.9167V27.0833C40 31.8291 40 34.202 39.0618 36.0081C38.2711 37.5301 37.0301 38.7711 35.5081 39.5618C33.702 40.5 31.3291 40.5 26.5833 40.5H13.4167C8.67091 40.5 6.29803 40.5 4.49188 39.5618C2.96985 38.7711 1.72885 37.5301 0.938221 36.0081C0 34.202 0 31.8291 0 27.0833V13.9167Z" fill="#FF0000"/>
<path id="Vector" fill-rule="evenodd" clip-rule="evenodd" d="M31.7365 10.3085C33.0215 10.6545 34.0347 11.6677 34.3806 12.9527C35.0231 15.3003 34.9984 20.1932 34.9984 20.1932C34.9984 20.1932 34.9984 25.0613 34.3806 27.4089C34.0347 28.6939 33.0215 29.7071 31.7365 30.0531C29.3889 30.6709 19.9985 30.6709 19.9985 30.6709C19.9985 30.6709 10.6328 30.6709 8.26047 30.0284C6.97546 29.6824 5.96229 28.6692 5.61632 27.3842C4.99854 25.0613 4.99854 20.1684 4.99854 20.1684C4.99854 20.1684 4.99854 15.3003 5.61632 12.9527C5.96229 11.6677 7.00017 10.6298 8.26047 10.2838C10.6081 9.66602 19.9985 9.66602 19.9985 9.66602C19.9985 9.66602 29.3889 9.66602 31.7365 10.3085ZM24.8172 19.9969L17.0083 24.4944V15.4993L24.8172 19.9969Z" fill="white"/>
</g>
</svg>
