<svg width="23" height="22" viewBox="0 0 23 22" fill="none" xmlns="http://www.w3.org/2000/svg">
<g clip-path="url(#clip0_1011_1319)">
<path d="M15.4398 7.59733L16.7268 8.90358L11.4166 14.135C11.0618 14.4897 10.5953 14.6667 10.1268 14.6667C9.65842 14.6667 9.18725 14.4879 8.82883 14.1304L6.27867 11.6591L7.55558 10.3418L10.1158 12.8233L15.4398 7.59733ZM22.5 11C22.5 17.0656 17.5656 22 11.5 22C5.43442 22 0.5 17.0656 0.5 11C0.5 4.93442 5.43442 0 11.5 0C17.5656 0 22.5 4.93442 22.5 11ZM20.6667 11C20.6667 5.9455 16.5545 1.83333 11.5 1.83333C6.4455 1.83333 2.33333 5.9455 2.33333 11C2.33333 16.0545 6.4455 20.1667 11.5 20.1667C16.5545 20.1667 20.6667 16.0545 20.6667 11Z" fill="#FEFEFE"/>
</g>
<defs>
<clipPath id="clip0_1011_1319">
<rect width="22" height="22" fill="white" transform="translate(0.5)"/>
</clipPath>
</defs>
</svg>
