<svg width="23" height="22" viewBox="0 0 23 22" fill="none" xmlns="http://www.w3.org/2000/svg">
<g clip-path="url(#clip0_1011_1521)">
<path d="M22.4999 11C22.4999 9.51775 21.8509 8.12533 20.7399 7.17292C20.8517 5.7145 20.3265 4.27075 19.2778 3.22208C18.23 2.17342 16.7817 1.64817 15.327 1.76C14.3736 0.649 12.9812 0 11.499 0C10.0167 0 8.6243 0.649 7.67096 1.76C6.21621 1.64817 4.7688 2.17342 3.72013 3.22208C2.67146 4.27167 2.14621 5.7145 2.25805 7.17292C1.14705 8.12533 0.498047 9.51775 0.498047 11C0.498047 12.4823 1.14705 13.8747 2.25805 14.8271C2.14621 16.2855 2.67146 17.7292 3.72013 18.7779C4.7688 19.8257 6.21621 20.3491 7.67096 20.24C8.6243 21.351 10.0167 22 11.499 22C12.9812 22 14.3736 21.351 15.327 20.24C16.7826 20.3509 18.23 19.8257 19.2778 18.7779C20.3265 17.7283 20.8517 16.2855 20.7399 14.8271C21.8509 13.8747 22.4999 12.4823 22.4999 11ZM19.2494 13.662L18.7452 14.0012L18.8616 14.597C19.066 15.6466 18.737 16.7255 17.9816 17.4808C17.2263 18.2362 16.1492 18.5653 15.0969 18.3608L14.502 18.2453L14.1628 18.7486C13.5642 19.6359 12.5687 20.1658 11.5008 20.1658C10.4329 20.1658 9.43738 19.6359 8.8388 18.7486L8.49963 18.2453L7.90471 18.3608C6.85146 18.5643 5.7753 18.2353 5.01996 17.4808C4.26463 16.7246 3.93555 15.6466 4.13996 14.597L4.25638 14.0012L3.75221 13.662C2.86488 13.0634 2.33505 12.0679 2.33505 11C2.33505 9.93208 2.86488 8.93658 3.75221 8.338L4.25638 7.99883L4.13996 7.403C3.93555 6.35342 4.26463 5.2745 5.01996 4.51917C5.7753 3.76383 6.8533 3.4375 7.90471 3.63917L8.49963 3.75467L8.8388 3.25142C9.43738 2.36408 10.4329 1.83425 11.5008 1.83425C12.5687 1.83425 13.5642 2.36408 14.1628 3.25142L14.502 3.75467L15.0969 3.63917C16.1483 3.43567 17.2263 3.76383 17.9816 4.51917C18.737 5.27542 19.066 6.35342 18.8616 7.403L18.7452 7.99883L19.2494 8.338C20.1367 8.93658 20.6665 9.93208 20.6665 11C20.6665 12.0679 20.1367 13.0634 19.2494 13.662ZM8.74988 9.16667C8.24388 9.16667 7.83321 8.756 7.83321 8.25C7.83321 7.744 8.24388 7.33333 8.74988 7.33333C9.25588 7.33333 9.66655 7.744 9.66655 8.25C9.66655 8.756 9.25588 9.16667 8.74988 9.16667ZM15.1665 13.75C15.1665 14.256 14.7559 14.6667 14.2499 14.6667C13.7439 14.6667 13.3332 14.256 13.3332 13.75C13.3332 13.244 13.7439 12.8333 14.2499 12.8333C14.7559 12.8333 15.1665 13.244 15.1665 13.75ZM14.7687 7.33333L10.3687 14.6667H8.23105L12.631 7.33333H14.7687Z" fill="#FEFEFE"/>
</g>
<defs>
<clipPath id="clip0_1011_1521">
<rect width="22" height="22" fill="white" transform="translate(0.5)"/>
</clipPath>
</defs>
</svg>
