<svg width="31" height="30" viewBox="0 0 31 30" fill="none" xmlns="http://www.w3.org/2000/svg">
<g clip-path="url(#clip0_1011_1529)">
<path d="M22.3752 2.39648C20.9676 2.41838 19.5908 2.8113 18.3836 3.53557C17.1765 4.25985 16.1819 5.28982 15.5002 6.52148C14.8185 5.28982 13.8239 4.25985 12.6167 3.53557C11.4096 2.8113 10.0328 2.41838 8.62519 2.39648C6.38137 2.49397 4.26732 3.47555 2.74492 5.12678C1.22252 6.778 0.415504 8.96464 0.500192 11.209C0.500192 16.8927 6.48269 23.1002 11.5002 27.309C12.6205 28.2504 14.0369 28.7665 15.5002 28.7665C16.9635 28.7665 18.3799 28.2504 19.5002 27.309C24.5177 23.1002 30.5002 16.8927 30.5002 11.209C30.5849 8.96464 29.7779 6.778 28.2555 5.12678C26.7331 3.47555 24.619 2.49397 22.3752 2.39648ZM17.8939 25.3965C17.2239 25.9607 16.3761 26.2701 15.5002 26.2701C14.6243 26.2701 13.7765 25.9607 13.1064 25.3965C6.68394 20.0077 3.00019 14.8377 3.00019 11.209C2.91474 9.62738 3.45815 8.07615 4.5119 6.89361C5.56564 5.71107 7.04423 4.99317 8.62519 4.89648C10.2062 4.99317 11.6847 5.71107 12.7385 6.89361C13.7922 8.07615 14.3356 9.62738 14.2502 11.209C14.2502 11.5405 14.3819 11.8584 14.6163 12.0929C14.8507 12.3273 15.1687 12.459 15.5002 12.459C15.8317 12.459 16.1497 12.3273 16.3841 12.0929C16.6185 11.8584 16.7502 11.5405 16.7502 11.209C16.6647 9.62738 17.2081 8.07615 18.2619 6.89361C19.3156 5.71107 20.7942 4.99317 22.3752 4.89648C23.9562 4.99317 25.4347 5.71107 26.4885 6.89361C27.5422 8.07615 28.0856 9.62738 28.0002 11.209C28.0002 14.8377 24.3164 20.0077 17.8939 25.3915V25.3965Z" fill="#232126"/>
</g>
<defs>
<clipPath id="clip0_1011_1529">
<rect width="30" height="30" fill="white" transform="translate(0.5)"/>
</clipPath>
</defs>
</svg>
